<?xml version="1.0" encoding="UTF-8"?>
<svg xmlns="http://www.w3.org/2000/svg" viewBox="0 0 420 720" width="420" height="720" role="img" aria-label="BGMI character stylized illustration">
  <defs>
    <linearGradient id="g" x1="0" x2="1">
      <stop offset="0%" stop-color="#00f0ff"/>
      <stop offset="100%" stop-color="#bc13fe"/>
    </linearGradient>
  </defs>
  <rect width="100%" height="100%" fill="none"/>
  <!-- Simplified futuristic soldier silhouette -->
  <g transform="translate(40,20)">
    <path d="M120 40 C90 45 70 80 80 120 C40 170 30 260 40 300 C50 340 80 380 120 390 C160 400 200 360 220 320 C240 280 260 230 240 170 C250 110 200 60 160 50 C150 50 140 45 120 40 Z" fill="url(#g)" opacity="0.95"/>
    <rect x="78" y="250" width="90" height="160" rx="12" ry="12" fill="#071018" opacity="0.55"/>
    <path d="M85 280 L170 300 L150 330 L95 310 Z" fill="#00f0ff" opacity="0.15"/>
    <circle cx="140" cy="130" r="6" fill="#fff"/>
    <circle cx="160" cy="120" r="4" fill="#fff" opacity="0.8"/>
    <!-- Accent line -->
    <path d="M80 360 C120 340 150 350 190 330" stroke="url(#g)" stroke-width="4" fill="none" stroke-linecap="round" opacity="0.9"/>
  </g>
</svg>